<svg width="47" height="47" viewBox="0 0 47 47" fill="none" xmlns="http://www.w3.org/2000/svg">
  <rect x="1" y="1" width="22.5" height="45" fill="#292929"/>
    <path d="M18.25 1H46V46H23.5L18.25 1Z" fill="#161616"/>
    <path d="M26.2364 18.52C25.6364 18.0667 24.9631 17.7533 24.2164 17.58C23.4831 17.4067 22.7431 17.32 21.9964 17.32H19.8164C19.0431 17.32 18.3164 17.4067 17.6364 17.58C16.9698 17.74 16.3898 18.0067 15.8964 18.38C15.4031 18.74 15.0098 19.22 14.7164 19.82C14.4364 20.42 14.2964 21.1467 14.2964 22C14.2964 22.8667 14.4364 23.6 14.7164 24.2C14.9964 24.7867 15.3831 25.2667 15.8764 25.64C16.3831 26 16.9698 26.2667 17.6364 26.44C18.3031 26.6 19.0298 26.68 19.8164 26.68H21.9964C22.6898 26.68 23.3498 26.6067 23.9764 26.46C24.6164 26.3 25.1898 26.06 25.6964 25.74C26.2031 25.4067 26.6364 24.9867 26.9964 24.48C27.3564 23.96 27.6164 23.3333 27.7764 22.6H22.2564V21.4H29.1764V22C29.1764 23.1067 28.9831 24.04 28.5964 24.8C28.2098 25.5467 27.6898 26.1533 27.0364 26.62C26.3831 27.0733 25.6231 27.4 24.7564 27.6C23.8898 27.8 22.9698 27.9 21.9964 27.9H19.8164C18.8431 27.9 17.9431 27.7933 17.1164 27.58C16.2898 27.3667 15.5698 27.0267 14.9564 26.56C14.3564 26.0933 13.8831 25.4867 13.5364 24.74C13.1898 23.9933 13.0164 23.08 13.0164 22C13.0164 20.92 13.1898 20.0067 13.5364 19.26C13.8831 18.5133 14.3564 17.9067 14.9564 17.44C15.5698 16.9733 16.2898 16.6333 17.1164 16.42C17.9431 16.2067 18.8431 16.1 19.8164 16.1H21.9964C22.4898 16.1 22.9831 16.12 23.4764 16.16C23.9698 16.1867 24.4498 16.2533 24.9164 16.36C25.3831 16.4667 25.8364 16.62 26.2764 16.82C26.7298 17.0067 27.1498 17.2667 27.5364 17.6L26.2364 18.52ZM29.2364 17.88C28.7698 17.2667 28.2631 16.7733 27.7164 16.4C27.1698 16.0267 26.5898 15.7333 25.9764 15.52C25.3764 15.3067 24.7431 15.1667 24.0764 15.1C23.4098 15.02 22.7164 14.98 21.9964 14.98H19.8164C18.6564 14.98 17.5964 15.1133 16.6364 15.38C15.6764 15.6333 14.8431 16.04 14.1364 16.6C13.4431 17.16 12.9031 17.8867 12.5164 18.78C12.1298 19.66 11.9364 20.7333 11.9364 22C11.9364 23.2667 12.1298 24.3467 12.5164 25.24C12.9031 26.12 13.4431 26.84 14.1364 27.4C14.8431 27.96 15.6764 28.3733 16.6364 28.64C17.5964 28.8933 18.6564 29.02 19.8164 29.02H21.9964C23.1431 29.02 24.2164 28.9 25.2164 28.66C26.2298 28.4067 27.1098 28.0067 27.8564 27.46C28.6031 26.9 29.1898 26.1733 29.6164 25.28C30.0564 24.3867 30.2764 23.2933 30.2764 22V20.3H21.1364V23.7H26.3364C26.1231 24.06 25.8498 24.36 25.5164 24.6C25.1831 24.84 24.8164 25.0333 24.4164 25.18C24.0298 25.3133 23.6231 25.4133 23.1964 25.48C22.7831 25.5333 22.3831 25.56 21.9964 25.56H19.8164C19.2164 25.56 18.6498 25.5 18.1164 25.38C17.5831 25.26 17.1164 25.0667 16.7164 24.8C16.3164 24.52 15.9964 24.1533 15.7564 23.7C15.5164 23.2467 15.3964 22.68 15.3964 22C15.3964 21.3333 15.5164 20.7733 15.7564 20.32C15.9964 19.8667 16.3164 19.5 16.7164 19.22C17.1298 18.94 17.6031 18.74 18.1364 18.62C18.6698 18.5 19.2298 18.44 19.8164 18.44H21.9964C22.7831 18.44 23.5364 18.5667 24.2564 18.82C24.9764 19.06 25.6164 19.4733 26.1764 20.06L29.2364 17.88ZM15.1364 29.32C14.3898 28.68 13.7764 28.0733 13.2964 27.5C12.8164 26.9267 12.4364 26.3533 12.1564 25.78C11.8898 25.1933 11.7031 24.6 11.5964 24C11.4898 23.3867 11.4364 22.72 11.4364 22C11.4364 20.64 11.6431 19.4867 12.0564 18.54C12.4698 17.58 13.0431 16.8 13.7764 16.2C14.5231 15.6 15.4098 15.1667 16.4364 14.9C17.4631 14.62 18.5898 14.48 19.8164 14.48H21.9964C22.7298 14.48 23.4364 14.5133 24.1164 14.58C24.7964 14.6467 25.4564 14.7867 26.0964 15C26.7364 15.2 27.3498 15.5067 27.9364 15.92C28.5364 16.32 29.1164 16.86 29.6764 17.54C30.0764 17.94 30.4031 18.2733 30.6564 18.54C30.9098 18.8067 31.1098 19.0333 31.2564 19.22C31.4164 19.4067 31.5364 19.56 31.6164 19.68C31.7098 19.7867 31.7898 19.8867 31.8564 19.98L31.2564 20.4L32.7164 21.86V24C32.7164 25.3733 32.4898 26.5333 32.0364 27.48C31.5831 28.4267 30.9631 29.1933 30.1764 29.78C29.3898 30.38 28.4631 30.8067 27.3964 31.06C26.3431 31.3267 25.2098 31.46 23.9964 31.46H21.8164C20.4564 31.46 19.1898 31.2867 18.0164 30.94C16.8431 30.6067 15.8831 30.0667 15.1364 29.32ZM20.6364 21C20.2364 21.0667 19.8631 21.1733 19.5164 21.32C19.1831 21.4533 18.8898 21.64 18.6364 21.88C18.3831 22.12 18.1831 22.42 18.0364 22.78C17.9031 23.1267 17.8364 23.5333 17.8364 24C17.8364 24.32 17.8631 24.5867 17.9164 24.8C18.1964 24.8933 18.4964 24.96 18.8164 25C19.1364 25.04 19.4698 25.06 19.8164 25.06H21.6164L20.6364 24.2V21Z" fill="#FFD58D"/>
    <path d="M11.1764 31H36.1564V32H11.1764V31Z" fill="#FFD58D"/>
  <rect x="1" y="1" width="45" height="45" stroke="#FFD58D" stroke-width="2"/>
</svg>
